<svg xmlns="http://www.w3.org/2000/svg" viewBox="0 0 60 60"><defs><style>.cls-1{fill:#fff;}</style></defs><g id="Layer_2" data-name="Layer 2"><g id="Layer_1-2" data-name="Layer 1"><rect class="cls-1" x="1" y="1" width="58" height="58" rx="11.9"/><path d="M47.1,2A10.91,10.91,0,0,1,58,12.9V47.1A10.91,10.91,0,0,1,47.1,58H12.9A10.91,10.91,0,0,1,2,47.1V12.9A10.91,10.91,0,0,1,12.9,2H47.1m0-2H12.9A12.89,12.89,0,0,0,0,12.9V47.1A12.89,12.89,0,0,0,12.9,60H47.1A12.89,12.89,0,0,0,60,47.1V12.9A12.89,12.89,0,0,0,47.1,0Z"/><circle cx="15.4" cy="14" r="6"/><circle cx="30.4" cy="30" r="6"/><circle cx="45.4" cy="45" r="6"/></g></g></svg>